<svg fill="none" viewBox="0 0 48 48"  xmlns="http://www.w3.org/2000/svg" xmlns:xlink="http://www.w3.org/1999/xlink"><filter id="a" color-interpolation-filters="sRGB" filterUnits="userSpaceOnUse" height="54" width="48" x="0" y="-3"><feFlood flood-opacity="0" result="BackgroundImageFix"/><feBlend in="SourceGraphic" in2="BackgroundImageFix" mode="normal" result="shape"/><feColorMatrix in="SourceAlpha" result="hardAlpha" type="matrix" values="0 0 0 0 0 0 0 0 0 0 0 0 0 0 0 0 0 0 127 0"/><feOffset dy="-3"/><feGaussianBlur stdDeviation="1.5"/><feComposite in2="hardAlpha" k2="-1" k3="1" operator="arithmetic"/><feColorMatrix type="matrix" values="0 0 0 0 0 0 0 0 0 0 0 0 0 0 0 0 0 0 0.1 0"/><feBlend in2="shape" mode="normal" result="effect1_innerShadow_3051_46969"/><feColorMatrix in="SourceAlpha" result="hardAlpha" type="matrix" values="0 0 0 0 0 0 0 0 0 0 0 0 0 0 0 0 0 0 127 0"/><feOffset dy="3"/><feGaussianBlur stdDeviation="1.5"/><feComposite in2="hardAlpha" k2="-1" k3="1" operator="arithmetic"/><feColorMatrix type="matrix" values="0 0 0 0 1 0 0 0 0 1 0 0 0 0 1 0 0 0 0.1 0"/><feBlend in2="effect1_innerShadow_3051_46969" mode="normal" result="effect2_innerShadow_3051_46969"/><feColorMatrix in="SourceAlpha" result="hardAlpha" type="matrix" values="0 0 0 0 0 0 0 0 0 0 0 0 0 0 0 0 0 0 127 0"/><feMorphology in="SourceAlpha" operator="erode" radius="1" result="effect3_innerShadow_3051_46969"/><feOffset/><feComposite in2="hardAlpha" k2="-1" k3="1" operator="arithmetic"/><feColorMatrix type="matrix" values="0 0 0 0 0.0627451 0 0 0 0 0.0941176 0 0 0 0 0.156863 0 0 0 0.24 0"/><feBlend in2="effect2_innerShadow_3051_46969" mode="normal" result="effect3_innerShadow_3051_46969"/></filter><filter id="b" color-interpolation-filters="sRGB" filterUnits="userSpaceOnUse" height="44.3333" width="37.9993" x="4.99935" y="4.95833"><feFlood flood-opacity="0" result="BackgroundImageFix"/><feColorMatrix in="SourceAlpha" result="hardAlpha" type="matrix" values="0 0 0 0 0 0 0 0 0 0 0 0 0 0 0 0 0 0 127 0"/><feMorphology in="SourceAlpha" operator="erode" radius="1.58333" result="effect1_dropShadow_3051_46969"/><feOffset dy="2.375"/><feGaussianBlur stdDeviation="2.375"/><feComposite in2="hardAlpha" operator="out"/><feColorMatrix type="matrix" values="0 0 0 0 0.141176 0 0 0 0 0.141176 0 0 0 0 0.141176 0 0 0 0.1 0"/><feBlend in2="BackgroundImageFix" mode="normal" result="effect1_dropShadow_3051_46969"/><feBlend in="SourceGraphic" in2="effect1_dropShadow_3051_46969" mode="normal" result="shape"/></filter><linearGradient id="c" gradientUnits="userSpaceOnUse" x1="24" x2="26" y1=".000001" y2="48"><stop offset="0" stop-color="#fff" stop-opacity="0"/><stop offset="1" stop-color="#fff" stop-opacity=".12"/></linearGradient><linearGradient id="d"><stop offset="0" stop-color="#fff" stop-opacity=".8"/><stop offset="1" stop-color="#fff" stop-opacity=".5"/></linearGradient><linearGradient id="e" gradientUnits="userSpaceOnUse" x1="23.9967" x2="23.9967" xlink:href="#d" y1="8.91455" y2="38.9979"/><linearGradient id="f" gradientUnits="userSpaceOnUse" x1="23.9983" x2="23.9983" xlink:href="#d" y1="13.5476" y2="34.3685"/><linearGradient id="g" gradientUnits="userSpaceOnUse" x1="24" x2="24" y1="0" y2="48"><stop offset="0" stop-color="#fff" stop-opacity=".12"/><stop offset="1" stop-color="#fff" stop-opacity="0"/></linearGradient><clipPath id="h"><rect height="48" rx="12" width="48"/></clipPath><g filter="url(#a)"><g clip-path="url(#h)"><rect fill="#875bf7" height="48" rx="12" width="48"/><path d="m0 0h48v48h-48z" fill="url(#c)"/><g filter="url(#b)"><path d="m29.5029 32.6537c-3.979 2.5242-9.3125 2.0508-12.7835-1.4202s-3.9444-8.8045-1.4201-12.7835l-3.4154-3.4153c-4.34729 5.887-3.85504 14.2258 1.4768 19.5576 5.3318 5.3318 13.6706 5.824 19.5576 1.4767z" fill="url(#e)"/><path d="m18.49 15.2591c3.9791-2.5246 9.3129-2.0513 12.784 1.4198 3.4712 3.4712 3.9445 8.805 1.4199 12.7841l3.4153 3.4153c4.3477-5.8871 3.8556-14.2262-1.4764-19.5581-5.332-5.33202-13.671-5.82414-19.5581-1.4764z" fill="url(#e)"/><path d="m31.2742 16.6789c-3.4712-3.4712-8.805-3.9444-12.7841-1.4198l-1.7114-1.7115c-.6108.4246-1.1925.9092-1.737 1.4536-.5445.5446-1.0291 1.1264-1.4538 1.7373l1.7115 1.7115c-2.5242 3.979-2.0508 9.3125 1.4202 12.7835s8.8044 3.9444 12.7835 1.4202l1.7148 1.7148c.6108-.4247 1.1926-.9093 1.7372-1.4539.5445-.5445 1.029-1.1262 1.4536-1.7369l-1.7147-1.7148c2.5246-3.9791 2.0513-9.3129-1.4198-12.784z" fill="url(#f)" opacity=".2"/></g></g><rect height="46" rx="11" stroke="url(#g)" stroke-width="2" width="46" x="1" y="1"/></g></svg>